<svg xmlns="http://www.w3.org/2000/svg" id="Layer_1" viewBox="0 0 1319.74 396.58"><defs><style>      .st0 {        fill: #004073;      }      .st1 {        fill: #888a8d;      }      .st2 {        fill: #ce202e;      }    </style></defs><path class="st0" d="M1038.61,157.53c0,4.44-.76,8.49-2.26,12.14-1.51,3.65-3.57,6.94-6.19,9.87-2.62,2.94-5.71,5.44-9.28,7.49-3.57,2.06-7.34,3.73-11.3,5,5.07,3.18,9.76,6.31,14.04,9.4,4.28,3.09,7.97,6.51,11.06,10.23,3.09,3.73,5.51,7.93,7.26,12.61,1.74,4.68,2.62,10.19,2.62,16.54,0,8.25-1.87,15.11-5.59,20.58-3.73,5.47-8.49,9.88-14.28,13.21-5.79,3.33-12.18,5.67-19.15,7.02-6.98,1.35-13.8,2.02-20.46,2.02s-12.69-.87-19.04-2.62c-6.35-1.74-12.1-4.44-17.25-8.09-5.16-3.65-9.32-8.21-12.49-13.68-3.18-5.47-4.76-11.86-4.76-19.15,0-10.79,3.13-19.59,9.4-26.41,6.26-6.82,14.16-12.21,23.68-16.18-3.01-2.38-6.07-4.88-9.16-7.5-3.09-2.62-5.87-5.39-8.33-8.33-2.46-2.93-4.44-6.19-5.95-9.76-1.51-3.57-2.26-7.5-2.26-11.78,0-6.98,1.43-12.97,4.28-17.96,2.86-5,6.58-9.08,11.18-12.25,4.6-3.17,9.83-5.55,15.7-7.14,5.87-1.58,11.82-2.38,17.85-2.38,5.71,0,11.58.64,17.61,1.9,6.03,1.27,11.5,3.37,16.42,6.31,4.91,2.94,8.92,6.78,12.02,11.54,3.09,4.76,4.64,10.55,4.64,17.37ZM955.33,233.67c0,5.08.67,10.03,2.02,14.87,1.35,4.84,3.41,9.16,6.19,12.97,2.77,3.81,6.22,6.86,10.35,9.16,4.12,2.3,8.88,3.45,14.28,3.45,8.57,0,15.27-2.18,20.11-6.54,4.84-4.36,7.26-10.98,7.26-19.87,0-4.44-1.59-8.76-4.76-12.97-3.17-4.2-7.02-8.17-11.54-11.9-4.52-3.73-9.28-7.26-14.28-10.59-5-3.33-9.24-6.34-12.73-9.04-5.08,2.86-9.16,7.1-12.25,12.73-3.09,5.63-4.64,11.54-4.64,17.73ZM1014.81,157.05c0-3.81-.59-7.45-1.78-10.95-1.19-3.49-2.9-6.54-5.12-9.16-2.22-2.62-4.96-4.68-8.21-6.19-3.25-1.51-6.94-2.26-11.06-2.26-6.03,0-10.99,1.83-14.87,5.47-3.89,3.65-5.83,9.04-5.83,16.18,0,4.28,1.19,8.13,3.57,11.54,2.38,3.41,5.31,6.54,8.8,9.4,3.49,2.86,7.22,5.55,11.18,8.09,3.96,2.54,7.53,5.16,10.71,7.85,4.92-4.12,8.25-8.57,9.99-13.32,1.74-4.76,2.62-10.31,2.62-16.66Z"></path><path class="st0" d="M1099.28,120.41c9.2,0,17.13,2.26,23.79,6.78,6.66,4.52,12.17,10.59,16.54,18.2,4.36,7.61,7.61,16.34,9.76,26.17,2.14,9.84,3.21,19.99,3.21,30.46s-1.07,20.62-3.21,30.46c-2.14,9.84-5.39,18.56-9.76,26.17-4.36,7.61-9.87,13.68-16.54,18.2-6.66,4.52-14.6,6.78-23.79,6.78s-17.13-2.26-23.79-6.78c-6.66-4.52-12.18-10.59-16.54-18.2-4.37-7.61-7.61-16.34-9.76-26.17-2.14-9.83-3.21-19.99-3.21-30.46s1.07-20.62,3.21-30.46c2.14-9.83,5.39-18.56,9.76-26.17,4.36-7.61,9.87-13.68,16.54-18.2,6.66-4.52,14.59-6.78,23.79-6.78ZM1099.28,129.93c-4.44,0-8.13,1.83-11.06,5.47-2.94,3.65-5.28,8.69-7.02,15.11-1.75,6.42-2.97,14.04-3.69,22.84-.71,8.8-1.07,18.36-1.07,28.67s.36,19.87,1.07,28.67,1.94,16.42,3.69,22.84c1.74,6.42,4.08,11.46,7.02,15.11,2.93,3.65,6.62,5.47,11.06,5.47s8.13-1.82,11.06-5.47c2.93-3.65,5.27-8.68,7.02-15.11,1.74-6.42,2.97-14.04,3.69-22.84.71-8.8,1.07-18.36,1.07-28.67s-.36-19.87-1.07-28.67c-.71-8.8-1.94-16.42-3.69-22.84-1.75-6.42-4.09-11.46-7.02-15.11-2.94-3.65-6.63-5.47-11.06-5.47Z"></path><path class="st0" d="M1067.38,52.41c59.39,6.8,111.44,51.18,129.02,108.2,25.72,80.35-16.67,168.1-95.3,198.48-101.27,39.85-214.13-31.2-220.51-140.12-2.69-40,10.39-80.75,36.12-111.5,25.09-30.38,61.9-50.81,101.07-55.22-9.52,1.97-18.85,4.64-27.8,8.24-8.97,3.54-17.59,7.89-25.71,12.98-106.16,67.06-94.13,224.56,23.08,271.72,92.7,36.51,195.29-27.01,204.7-126.08,8.1-78.82-47.3-151.25-124.66-166.7h0Z"></path><path class="st1" d="M1000.51,310.45l-6.99-9.31,4.74-.64,2.49,3.84c.17.28.34.55.51.83.17.27.31.52.44.74.15.26.28.51.41.75h.05c.06-.28.12-.55.2-.84.06-.25.14-.52.22-.83s.18-.62.28-.93l1.36-4.36,4.76-.64-4.27,10.83.95,6.99-4.18.57-.95-6.99Z"></path><path class="st1" d="M1016.57,298.38l10.77-.73.24,3.6-6.57.44.21,3.12,5.25-.36.24,3.6-5.25.36.22,3.25,6.9-.47.24,3.6-11.1.75-1.16-17.18Z"></path><path class="st1" d="M1044.99,310.92l-5.36.03-1.03,3.62-4.33.02,5.76-17.25,4.43-.02,5.94,17.19-4.34.02-1.08-3.61ZM1042.25,301.25c-.07.36-.15.72-.23,1.07-.07.3-.14.62-.22.96-.08.34-.16.65-.24.92l-.97,3.36,3.4-.02-.98-3.35c-.08-.27-.16-.58-.25-.92-.08-.34-.16-.66-.22-.96-.09-.35-.17-.71-.24-1.07h-.05Z"></path><path class="st1" d="M1058.06,297.64l5.98.41c.44.03.82.06,1.15.1s.63.08.89.13c.26.05.49.11.7.17.2.07.4.14.58.22.47.22.89.5,1.26.84.37.34.68.72.92,1.17.24.44.42.93.54,1.47.11.54.15,1.12.1,1.75-.03.46-.12.92-.26,1.37-.14.45-.33.88-.58,1.29-.24.4-.54.77-.88,1.09-.35.32-.74.58-1.17.77v.05c.04.07.09.16.14.26.05.09.11.2.18.34.07.13.15.3.25.48l2.93,6.24-4.69-.32-2.65-6.01-1.97-.14-.4,5.8-4.2-.29,1.18-17.18ZM1063.56,305.83c.68.05,1.23-.1,1.64-.43.41-.33.64-.84.69-1.53.02-.33,0-.62-.05-.88-.05-.26-.17-.48-.35-.67s-.44-.34-.77-.46c-.33-.12-.76-.19-1.28-.23l-1.42-.1-.29,4.18,1.83.13Z"></path><path class="st1" d="M1079.5,311.39c.33.39.71.74,1.11,1.06.17.13.36.27.56.41s.42.27.65.38.47.22.72.3.51.15.78.19c.22.03.44.04.66.02.22-.02.42-.07.61-.15.18-.08.34-.2.47-.36.13-.16.21-.37.25-.63.04-.26-.04-.5-.24-.72-.19-.22-.46-.45-.8-.69-.34-.23-.72-.47-1.15-.72-.43-.25-.87-.51-1.33-.8s-.89-.61-1.3-.95c-.42-.35-.78-.74-1.09-1.17s-.54-.91-.69-1.44c-.15-.53-.18-1.12-.09-1.78.11-.79.36-1.49.76-2.09s.9-1.09,1.51-1.47c.61-.38,1.29-.65,2.06-.8.77-.15,1.58-.16,2.42-.05.46.06.89.15,1.28.26.4.11.76.24,1.09.38.33.14.63.29.9.44.27.16.51.31.72.46.5.36.91.75,1.23,1.16l-2.23,3.17c-.3-.33-.64-.63-1.02-.9-.32-.23-.7-.46-1.13-.69-.43-.22-.91-.37-1.42-.44-.21-.03-.43-.03-.65-.01-.22.02-.43.07-.62.16-.19.09-.35.2-.48.36s-.21.35-.25.59c-.04.27.04.52.23.75s.46.46.79.68.72.45,1.16.69c.44.23.88.49,1.33.77.45.28.88.59,1.31.92.42.34.79.72,1.09,1.14s.53.91.69,1.44c.15.54.18,1.14.09,1.82-.1.71-.32,1.37-.68,1.98-.35.6-.82,1.11-1.4,1.52-.58.41-1.26.71-2.05.89s-1.66.21-2.62.08c-.51-.07-.97-.17-1.41-.3s-.84-.28-1.21-.45c-.37-.17-.71-.34-1.02-.53s-.58-.38-.82-.57c-.57-.44-1.05-.92-1.44-1.45l2.64-2.88Z"></path><path class="st1" d="M734.18,178.89c.06,2.05-6.88.88-17.15,4.23-16.04,5.23-20.87,9.34-21.07,12.9-.51,8.93,20.49,26.48,15.01,51.48-3.34,15.22-36.8,39.13-94.89,49.72-45.15,8.23-86.55,16.16-101.72,33.54,0,0,14.75-27.07,65.56-38.37,60.85-13.54,106.64-35.05,109.02-55.44,2.16-18.52-7.89-26.93-8.33-37.68-.18-4.54,4.64-10.44,10.13-13.16,7.65-3.8,25.75-9.72,43.45-7.22Z"></path><path class="st2" d="M670.97,152.52s2.27-3.63,1.81-10.78c-.56-8.67-8.8-18.72-33.11-23.15-31.89-5.81-72.68-16.6-94.62-52.77,0,0,22,23.64,68.47,30.45,48.1,7.05,62.11,12.41,69.33,23.01,8.23,12.07,3.99,26.81,1.75,30.56,0,0,9.42-2.03,20.17,2.2,8.58,3.37,13.3,11.88,13.75,17.37.19,2.37.49,2.32.49,2.32,0,0-.13.78-5.14-3.68-6.43-5.72-19.49-8.19-35.41-5.15-15.56,2.97-22.96,8.48-37.11,12.55-18.38,5.29-35.49,6.17-35.49,6.17,0,0,21.68-6.25,38.61-16.67,18.43-11.35,26.49-12.43,26.49-12.43Z"></path><path class="st0" d="M374.54,233.08l26.72-40.79,5.31,40.79.7,7.03c12.58-.51,25.72-1.49,39.31-3.07l-14.11-91.26h-6.59s-13.1-1.71-29.73,7.28c-10.88,5.88-19.71,17.74-19.71,17.74l-46.22,66.9c11.9,1.24,25.19,2.2,39.62,2.62l4.7-7.24ZM527.3,205.75l6.53-24.27s37.02,3.98,66.97.4c2.53-9.22,9.56-35.07,9.56-35.07h-69.32s-17.01.1-27.68,7.28c-14.36,9.66-17.1,20.06-17.1,20.06l-15.6,57.76c13.81-2.57,27.92-5.79,42.27-9.81l4.37-16.35ZM327.97,146.81h-12.29s-20.42-.41-35.36,9.46c-14.95,9.86-20.99,18.42-20.99,18.42l-35.25,40.65-21.43-68.53h-2.26s-14.81-.39-29.04,8.23c-11.87,7.18-17.32,20.04-17.32,20.04l-38.2,114.48h40.38l26.47-71.38,21.02,80.48,63.59-71.92s13.69,3.95,37.17,7.61l23.51-87.56ZM267.28,226.76l-17.43,62.82h39.77l12.88-47.94c6.77,2.45,13.57,4.68,20.36,6.72l-28.48,41.22h43.03l21.36-32.22c17.32,3.54,34.42,5.92,50.95,7.36l3.36,24.85h41.6l-3.57-23.09c6.98-.01,13.77-.19,20.35-.49l-6.38,23.59h39.77s10.5-23.52,41.24-38.92c33.65-16.86,44.26-41.04,44.26-41.04-165.85,73.93-323.08,17.14-323.08,17.14Z"></path><rect class="st1" x="805.21" y="65.82" width="4" height="264.95"></rect><g><polygon class="st2" points="1046.06 69.55 1046.06 69.55 1046.06 69.55 1046.06 69.55"></polygon><polygon class="st2" points="1046.06 34.25 1046.06 34.25 1046.06 34.25 1046.06 34.25"></polygon><path class="st2" d="M1062.14,51.84c-.16-.11-.38-.17-.6-.2,0-3.3-.11-5.93-.24-5.93s-.23,2.61-.24,5.9c-.19,0-.33,0-.33,0v-1.63c0-.41-.34-.75-.75-.75h-2.57v.35c-.3-.31-.71-.51-1.18-.51h-1.27c-.37-.57-.32-1.81-.32-1.81v-.08s1.07.15,1.55-.51c.06-.08.06-.2,0-.28-.48-.66-1.55-.51-1.55-.51v-13.22l.11-.07c.08-.05.07-.17-.02-.21l-.16-.07s-.54-5.6-3.79-5.99c-3.26-.39-4.48,6.19-4.48,6.19,0,0-.14.7-.24,1.75v14.49l-1.45.34c-1.5.1-10.67.76-14.89,1.61v-1.12c0-.23-.05-.45-.14-.66l-2.27-4.96s-.78-1.15-1.64-.78-2.76,1.32-2.81,4.02c-.05,2.7.9,3.97,2.96,4.44h0c-2.18.02-3.87.14-3.87.28s1.7.27,3.87.28h0c-2.05.47-3,1.74-2.96,4.44.05,2.7,1.95,3.65,2.81,4.02s1.64-.78,1.64-.78l2.27-4.96c.1-.21.14-.43.14-.66v-1.13h0c4.22.85,13.39,1.51,14.89,1.61l1.45.34v14.49c.11,1.05.24,1.75.24,1.75,0,0,1.22,6.58,4.48,6.19,3.26-.39,3.79-5.99,3.79-5.99l.16-.07c.09-.04.1-.16.02-.21l-.11-.07v-13.22s1.07.15,1.55-.51c.06-.08.06-.2,0-.28-.48-.66-1.55-.51-1.55-.51v-.08s-.05-1.25.32-1.81h1.27c.47,0,.88-.2,1.18-.51v.35h2.57c.41,0,.75-.34.75-.75v-1.63s.14,0,.33,0c0,3.28.11,5.9.24,5.9s.23-2.63.24-5.93c.22-.03.45-.09.6-.2.06-.04.06-.09,0-.13Z"></path></g></svg>